<svg width="213" height="213" xmlns="http://www.w3.org/2000/svg" xmlns:xlink="http://www.w3.org/1999/xlink" xml:space="preserve" overflow="hidden"><g transform="translate(-981 -109)"><g><g><g><g><path d="M1035.88 198.333 1035.88 167.417 1065.03 167.417 1080.27 198.333 1036.1 198.333 1035.88 198.333ZM1155.13 198.333 1128.85 198.333 1128.85 178.458C1128.85 176.029 1130.84 174.042 1133.27 174.042L1133.27 165.208C1125.98 165.208 1120.02 171.171 1120.02 178.458L1120.02 198.333 1095.07 198.333C1094.85 197.892 1094.62 197.45 1094.4 196.787L1076.96 161.454C1074.75 156.817 1070.11 153.946 1065.03 154.167L1036.1 154.167C1028.82 154.167 1022.85 160.129 1022.85 167.417L1022.85 198.333 1018.22 201.204C1016.89 202.087 1016.23 203.412 1016.23 204.958L1016.23 211.583C1016.23 212.246 1016.45 212.908 1016.67 213.571 1013.14 215.779 1009.83 218.208 1006.73 221.3 1005.85 222.183 1005.19 223.508 1005.19 224.833 1005.19 226.158 1005.85 227.483 1006.73 228.367 1008.5 229.692 1010.93 229.692 1012.7 227.925 1023.3 217.325 1034.12 216 1036.99 216L1040.3 216C1059.51 216 1074.97 230.133 1075.63 249.125L1075.63 253.321C1075.63 255.529 1077.18 257.517 1079.39 257.958 1080.71 258.179 1082.04 257.737 1082.92 256.854 1083.8 255.971 1084.47 254.867 1084.47 253.542L1084.47 249.125 1123.33 249.125C1127.09 237.2 1138.13 229.25 1150.72 229.25 1153.37 229.25 1155.8 229.692 1158.45 230.354 1159.77 230.796 1161.32 230.354 1162.42 229.471 1163.53 228.587 1164.19 227.262 1164.19 225.938L1164.19 207.167C1164.19 204.738 1163.3 202.529 1161.54 200.983 1159.77 199.217 1157.56 198.333 1155.13 198.333Z" fill="#5A189A" fill-rule="nonzero" fill-opacity="1"/><path d="M1040.3 265.688C1031.69 265.688 1024.84 258.842 1024.84 250.229 1024.84 241.617 1031.69 234.771 1040.3 234.771 1048.91 234.771 1055.76 241.617 1055.76 250.229 1055.76 258.842 1048.91 265.688 1040.3 265.688L1040.3 265.688ZM1040.3 223.729C1026.17 223.729 1014.46 234.771 1013.8 248.904L1013.8 249.125C1013.8 249.567 1013.8 249.787 1013.8 250.229 1013.8 264.804 1025.72 276.729 1040.3 276.729 1054.88 276.729 1066.8 264.804 1066.8 250.229 1066.8 249.787 1066.8 249.567 1066.8 249.125 1066.36 234.992 1054.65 223.729 1040.3 223.729Z" fill="#5A189A" fill-rule="nonzero" fill-opacity="1"/><path d="M1150.72 269C1144.53 269 1139.68 264.142 1139.68 257.958 1139.68 251.775 1144.53 246.917 1150.72 246.917 1156.9 246.917 1161.76 251.775 1161.76 257.958 1161.76 264.142 1156.9 269 1150.72 269ZM1163.97 243.162C1156.9 236.979 1146.52 236.317 1139.01 241.837 1131.5 247.358 1128.85 257.517 1132.61 265.908 1136.36 274.521 1145.86 279.158 1154.91 277.171 1164.19 275.183 1170.59 267.012 1170.59 257.737 1170.59 252.217 1168.38 246.917 1163.97 243.162Z" fill="#5A189A" fill-rule="nonzero" fill-opacity="1"/></g></g></g></g></g></svg>