<svg width="213" height="213" xmlns="http://www.w3.org/2000/svg" xmlns:xlink="http://www.w3.org/1999/xlink" xml:space="preserve" overflow="hidden"><g transform="translate(-85 -397)"><g><g><g><g><path d="M122.438 580.85C120.892 582.396 118.904 582.837 116.917 581.954 114.929 581.071 113.825 579.304 113.825 577.317 113.825 575.329 115.15 573.342 116.917 572.679 118.904 571.796 120.892 572.237 122.438 573.783 124.425 575.55 124.425 578.862 122.438 580.85ZM278.346 435.321 260.458 453.208 246.325 449.454 242.792 435.542 260.679 417.654C250.079 413.679 238.154 416.108 229.762 423.617 221.371 431.346 218.058 442.829 220.929 453.871L108.304 566.496C104.329 570.25 102.783 575.992 104.108 581.292 105.433 586.592 109.629 590.787 114.929 592.112 120.229 593.438 125.75 591.892 129.725 587.917L242.35 475.292C253.392 478.163 264.875 474.85 272.604 466.458 280.112 458.067 282.542 445.921 278.346 435.321Z" fill="#5A189A" fill-rule="nonzero" fill-opacity="1"/><path d="M277.462 566.496 220.488 509.521 197.521 532.487 252.729 587.696 254.717 589.683 254.938 589.462C261.342 594.1 270.175 593.217 275.696 587.696 281.217 581.954 281.879 573.121 277.462 566.496Z" fill="#5A189A" fill-rule="nonzero" fill-opacity="1"/><path d="M135.908 441.725 136.129 441.504 130.387 430.904 111.396 415.667 103.667 423.396 118.904 442.388 129.504 448.129 129.725 447.908 171.904 490.087 178.087 483.904Z" fill="#5A189A" fill-rule="nonzero" fill-opacity="1"/></g></g></g></g></g></svg>