<svg width="213" height="213" xmlns="http://www.w3.org/2000/svg" xmlns:xlink="http://www.w3.org/1999/xlink" xml:space="preserve" overflow="hidden"><g transform="translate(-85 -109)"><g><g><g><g><path d="M275.917 266.792 269.292 273.417 116.917 273.417 108.083 264.583 108.083 220.417 116.917 211.583 269.292 211.583 275.917 218.208 275.917 266.792ZM94.8333 198.333 94.8333 286.667 289.167 286.667 289.167 198.333 94.8333 198.333Z" fill="#5A189A" fill-rule="nonzero" fill-opacity="1"/><path d="M209.667 242.5C209.667 254.696 201.757 264.583 192 264.583 182.243 264.583 174.333 254.696 174.333 242.5 174.333 230.304 182.243 220.417 192 220.417 201.757 220.417 209.667 230.304 209.667 242.5Z" fill="#5A189A" fill-rule="nonzero" fill-opacity="1"/><path d="M143.417 242.5C143.417 246.159 140.451 249.125 136.792 249.125 133.133 249.125 130.167 246.159 130.167 242.5 130.167 238.841 133.133 235.875 136.792 235.875 140.451 235.875 143.417 238.841 143.417 242.5Z" fill="#5A189A" fill-rule="nonzero" fill-opacity="1"/><path d="M253.833 242.5C253.833 246.159 250.867 249.125 247.208 249.125 243.549 249.125 240.583 246.159 240.583 242.5 240.583 238.841 243.549 235.875 247.208 235.875 250.867 235.875 253.833 238.841 253.833 242.5Z" fill="#5A189A" fill-rule="nonzero" fill-opacity="1"/><path d="M231.529 155.712 234.842 164.104 248.092 161.454 238.817 138.267 120.008 186.85 188.025 173.379Z" fill="#5A189A" fill-rule="nonzero" fill-opacity="1"/><path d="M220.046 189.5 254.938 182.654 256.483 189.5 269.954 189.5 265.538 166.975 152.25 189.5Z" fill="#5A189A" fill-rule="nonzero" fill-opacity="1"/></g></g></g></g></g></svg>