<svg width="212" height="213" xmlns="http://www.w3.org/2000/svg" xmlns:xlink="http://www.w3.org/1999/xlink" xml:space="preserve" overflow="hidden"><g transform="translate(-376 -397)"><g><g><g><g><path d="M43.9583 108.357 43.9583 134.073C43.9583 146.161 71.4323 158.25 105.5 158.25 139.568 158.25 167.042 146.161 167.042 134.073L167.042 108.357 105.5 130.117 43.9583 108.357Z" fill="#5A189A" fill-rule="nonzero" fill-opacity="1" transform="matrix(1 0 0 1.00474 376 398)"/><path d="M105.5 120.666 201.329 87.0375 105.5 52.75 9.67083 87.0375 21.9792 91.4333 21.9792 131.875C21.9792 134.293 23.9573 136.271 26.375 136.271 28.7927 136.271 30.7708 134.293 30.7708 131.875L30.7708 94.5104 105.5 120.666Z" fill="#5A189A" fill-rule="nonzero" fill-opacity="1" transform="matrix(1 0 0 1.00474 376 398)"/></g></g></g></g></g></svg>