<svg width="212" height="213" xmlns="http://www.w3.org/2000/svg" xmlns:xlink="http://www.w3.org/1999/xlink" xml:space="preserve" overflow="hidden"><g transform="translate(-376 -109)"><g><g><g><g><path d="M106.115 175.833C115.753 168.225 124.948 160.072 133.655 151.414 146.278 139.389 157.439 125.918 166.91 111.281 175.701 97.1259 184.098 78.7514 178.317 61.9593 173.635 48.0684 160.646 36.2656 145.722 34.837 126.864 32.9688 113.215 48.9256 105.5 64.2011 98.4447 50.2224 86.7738 35.8041 69.9157 34.7491 54.9479 33.8259 41.0131 44.354 34.5732 57.4316 26.5069 73.85 33.0786 92.3125 41.5626 107.061 50.3543 122.446 62.0472 135.963 74.3995 148.469 84.1369 158.432 94.5267 167.735 105.5 176.317ZM70.3333 101.104 76.9271 81.3229 80.8394 69.5641C81.8504 66.509 83.4109 62.4208 87.6309 64.1792 90.1805 65.2561 90.3344 67.8936 90.774 70.2015L92.5982 79.9382 97.8732 108.072 101.368 126.754 114.116 93.0378 116.929 85.6089C117.742 83.4109 118.578 81.213 121.325 80.9713 124.82 80.6196 125.853 83.6088 126.622 86.2463L129.325 95.5215 134.688 113.962 139.985 108.138C141.68 105.92 143.586 103.874 145.678 102.027 147.876 100.489 151.942 101.192 154.47 101.192L162.646 101.192C161.019 104.115 159.217 107.061 157.261 109.984L150.118 109.984C145.436 115.149 140.952 120.644 135.985 125.545 134.427 127.407 131.655 127.653 129.793 126.095 129.427 125.789 129.113 125.425 128.864 125.018 128.386 124.072 128.039 123.067 127.831 122.028L124.16 109.478 121.171 99.192C115.566 113.984 110.182 128.798 104.401 143.524 104.078 144.724 103.376 145.787 102.401 146.557 100.4 147.932 97.6633 147.424 96.2888 145.423 95.9375 144.911 95.6986 144.332 95.5874 143.722 95.0819 141.7 94.8181 139.59 94.4225 137.568L88.8618 107.896 84.7077 85.7188 78.5096 104.335C77.5645 107.104 76.8172 109.808 73.2566 109.984 70.0256 110.138 66.7727 109.984 63.5638 109.984L53.6731 109.984C51.739 107.061 49.9147 104.115 48.2882 101.192Z" fill="#5A189A" fill-rule="nonzero" fill-opacity="1" transform="matrix(1 0 0 1.00474 376 110)"/></g></g></g></g></g></svg>