<svg width="213" height="213" xmlns="http://www.w3.org/2000/svg" xmlns:xlink="http://www.w3.org/1999/xlink" xml:space="preserve" overflow="hidden"><g transform="translate(-981 -397)"><g><g><g><g><path d="M1079.17 574.667 1074.75 574.667 1074.75 565.833 1012.92 565.833 1012.92 574.667 1008.5 574.667C1003.64 574.667 999.667 578.642 999.667 583.5 999.667 588.358 1003.64 592.333 1008.5 592.333L1079.17 592.333C1084.03 592.333 1088 588.358 1088 583.5 1088 578.642 1084.03 574.667 1079.17 574.667Z" fill="#5A189A" fill-rule="nonzero" fill-opacity="1"/><path d="M1078.95 530.721C1081.6 528.071 1081.6 523.875 1078.95 521.446L1044.05 486.554C1041.4 483.904 1037.21 483.904 1034.78 486.554L1026.17 495.167 1070.33 539.333 1078.95 530.721Z" fill="#5A189A" fill-rule="nonzero" fill-opacity="1"/><path d="M1131.95 468.446C1134.6 471.096 1138.79 471.096 1141.22 468.446L1149.83 459.833 1105.67 415.667 1097.05 424.279C1094.4 426.929 1094.4 431.125 1097.05 433.554L1131.95 468.446Z" fill="#5A189A" fill-rule="nonzero" fill-opacity="1"/><path d="M1174.12 545.958 1114.5 486.333 1127.75 473.083 1092.42 437.75 1048.25 481.917 1083.58 517.25 1101.25 499.583 1160.88 559.208C1164.63 562.962 1170.37 562.962 1174.12 559.208 1177.88 555.454 1177.88 549.712 1174.12 545.958Z" fill="#5A189A" fill-rule="nonzero" fill-opacity="1"/></g></g></g></g></g></svg>