<svg width="213" height="213" xmlns="http://www.w3.org/2000/svg" xmlns:xlink="http://www.w3.org/1999/xlink" xml:space="preserve" overflow="hidden"><g transform="translate(-664 -397)"><g><g><g><g><path d="M832.833 495.167C832.833 500.025 828.858 504 824 504 819.142 504 815.167 500.025 815.167 495.167L815.167 486.333 810.75 442.167 828.417 442.167 832.833 486.333 832.833 495.167ZM797.5 495.167C797.5 500.025 793.525 504 788.667 504 783.808 504 779.833 500.025 779.833 495.167L779.833 486.333 777.625 442.167 795.292 442.167 797.5 486.333 797.5 495.167ZM762.167 486.333 762.167 495.167C762.167 500.025 758.192 504 753.333 504 748.475 504 744.5 500.025 744.5 495.167L744.5 486.333 746.708 442.167 764.375 442.167 762.167 486.333ZM753.333 557 718 557 718 521.667 753.333 521.667 753.333 557ZM709.167 495.167 709.167 486.333 713.583 442.167 731.25 442.167 726.833 486.333 726.833 495.167C726.833 500.025 722.858 504 718 504 713.142 504 709.167 500.025 709.167 495.167ZM841.667 428.917 700.333 428.917 691.5 486.333 691.5 495.167C691.5 500.025 695.475 504 700.333 504L700.333 579.083 775.417 579.083 775.417 521.667 824 521.667 824 579.083 841.667 579.083 841.667 504C846.525 504 850.5 500.025 850.5 495.167L850.5 486.333 841.667 428.917Z" fill="#5A189A" fill-rule="nonzero" fill-opacity="1"/></g></g></g></g></g></svg>