<svg width="213" height="213" xmlns="http://www.w3.org/2000/svg" xmlns:xlink="http://www.w3.org/1999/xlink" xml:space="preserve" overflow="hidden"><g transform="translate(-664 -109)"><g><g><g><g><path d="M788.667 238.083 682.667 238.083 682.667 167.417 788.667 167.417 788.667 238.083ZM793.083 154.167 678.25 154.167C673.392 154.167 669.417 158.142 669.417 163L669.417 242.5C669.417 247.358 673.392 251.333 678.25 251.333L722.417 251.333 722.417 264.583 702.542 264.583 702.542 277.833 768.792 277.833 768.792 264.583 748.917 264.583 748.917 251.333 793.083 251.333C797.942 251.333 801.917 247.358 801.917 242.5L801.917 163C801.917 158.142 797.942 154.167 793.083 154.167Z" fill="#5A189A" fill-rule="nonzero" fill-opacity="1"/><path d="M863.75 176.25 819.583 176.25 819.583 163 863.75 163 863.75 176.25ZM863.75 198.333 819.583 198.333 819.583 185.083 863.75 185.083 863.75 198.333ZM841.667 264.583C837.912 264.583 835.042 261.712 835.042 257.958 835.042 254.204 837.912 251.333 841.667 251.333 845.421 251.333 848.292 254.204 848.292 257.958 848.292 261.712 845.421 264.583 841.667 264.583ZM863.75 154.167 819.583 154.167C814.725 154.167 810.75 158.142 810.75 163L810.75 269C810.75 273.858 814.725 277.833 819.583 277.833L863.75 277.833C868.608 277.833 872.583 273.858 872.583 269L872.583 163C872.583 158.142 868.608 154.167 863.75 154.167Z" fill="#5A189A" fill-rule="nonzero" fill-opacity="1"/></g></g></g></g></g></svg>